<mxfile host="app.diagrams.net" modified="2023-08-28T07:03:55.599Z" agent="Mozilla/5.0 (Windows NT 10.0; Win64; x64) AppleWebKit/537.36 (KHTML, like Gecko) Chrome/116.0.0.0 Safari/537.36" version="21.6.8" etag="Of4cfRja7CSkGYvjBmv8" type="github">
  <diagram name="페이지-1" id="ZL8qI8yp4I-SJOsZ6RWJ">
    <mxGraphModel>
      <root>
        <mxCell id="0" />
        <mxCell id="1" parent="0" />
      </root>
    </mxGraphModel>
  </diagram>
</mxfile>
